<?xml version="1.0"?>
<svg xmlns="http://www.w3.org/2000/svg" viewBox="0 0 192 192" width="512px" height="512px"><g><g id="_08-cocktail" data-name="08-cocktail"><path d="M191.323,60.779A8,8,0,0,0,184,56H139.5l11.446-20.031-13.892-7.938L121.071,56H8A8,8,0,0,0,2.1,69.406L88,163.112V192h16V163.112l85.9-93.706A8,8,0,0,0,191.323,60.779ZM111.928,72l-4.7,8.223A24,24,0,1,0,104,128a23.913,23.913,0,0,0,16.717-6.8L96,148.161,26.186,72ZM112,104a8,8,0,1,1-8-8A8.009,8.009,0,0,1,112,104Zm10.621,15.12a23.938,23.938,0,0,0-1.157-31.557L130.357,72h35.457Z" data-original="#000000" class="active-path" data-old_color="#000000" fill="#73C2D0"/><circle cx="64" cy="8" r="8" data-original="#000000" class="active-path" data-old_color="#000000" fill="#73C2D0"/><circle cx="88" cy="40" r="8" data-original="#000000" class="active-path" data-old_color="#000000" fill="#73C2D0"/><circle cx="40" cy="32" r="8" data-original="#000000" class="active-path" data-old_color="#000000" fill="#73C2D0"/><circle cx="64" cy="88" r="8" data-original="#000000" class="active-path" data-old_color="#000000" fill="#73C2D0"/></g></g> </svg>
