<?xml version="1.0"?>
<svg xmlns="http://www.w3.org/2000/svg" viewBox="0 0 192 192" width="512px" height="512px"><g><g id="_19-club" data-name="19-club"><path d="M144,64q-1.222,0-2.458.061A56.074,56.074,0,0,0,144,48a48,48,0,0,0-96,0,56.074,56.074,0,0,0,2.458,16.061Q49.224,64,48,64a48,48,0,0,0,0,96,53.247,53.247,0,0,0,29.757-9.56c-2.028,11.139-5.815,19.231-9.681,23.2C67.216,174.519,65.541,176,64,176a8,8,0,0,0,0,16h64a8,8,0,0,0,0-16c-1.258,0-2.873-.945-4.548-2.663-4-4.1-7.922-12.158-10.063-23.031A55.878,55.878,0,0,0,144,160a48,48,0,0,0,0-96Zm0,80c-12.758,0-25.947-7.352-33.6-18.729a8,8,0,0,0-14.634,4.264c-.453,18,3.244,34.8,9.934,46.465H85.89c6.329-11.55,9.8-28.3,9.346-46.465A8,8,0,0,0,80.6,125.271C72.829,136.823,60.337,144,48,144a32,32,0,0,1,0-64,41.346,41.346,0,0,1,13.339,2.406A8,8,0,0,0,70.806,70.7C66.48,63.569,64,55.3,64,48a32,32,0,0,1,64,0c0,7.3-2.48,15.569-6.806,22.7a8,8,0,0,0,9.467,11.705A41.346,41.346,0,0,1,144,80a32,32,0,0,1,0,64Z" data-original="#000000" class="active-path" data-old_color="#000000" fill="#73C2D0"/></g></g> </svg>
